<svg width="30" height="30" viewBox="0 0 30 30" fill="none" xmlns="http://www.w3.org/2000/svg">
<path d="M2.73009 27.0009L0 0H30L27.2672 26.9968L14.9818 30L2.73009 27.0009Z" fill="#1572B6"/>
<path d="M15.0002 27.7045L24.9276 25.2777L27.2631 2.20752H15.0002V27.7045Z" fill="#33A9DC"/>
<path d="M15.0002 11.99H19.97L20.3132 8.59892H15.0002V5.28735H24.4179L24.3277 6.17588L23.4045 15.3016H15.0002V11.99Z" fill="white"/>
<path d="M15.0225 20.5903L15.006 20.5946L10.8234 19.5988L10.5559 16.9576H6.78638L7.31235 22.1574L15.0054 24.04L15.0225 24.0357V20.5903Z" fill="#EBEBEB"/>
<path d="M19.6507 15.1615L19.1983 19.5962L15.0095 20.5932V24.0386L22.7088 22.1572L22.7653 21.5976L23.4186 15.1615H19.6507Z" fill="white"/>
<path d="M15.0131 5.28735V8.59892H5.94139L5.86618 7.85477L5.6951 6.17588L5.60522 5.28735H15.0131ZM15.0003 11.9905V15.302H10.8704L10.7952 14.5579L10.6239 12.879L10.5343 11.9905H15.0003Z" fill="#EBEBEB"/>
</svg>
