<svg width="12" height="15" viewBox="0 0 12 15" fill="none" xmlns="http://www.w3.org/2000/svg">
<path d="M12 1.75385C12 0.784616 11.2154 0 10.2462 0H1.75385C0.784616 0 0 0.784616 0 1.75385V13.0154C0 13.9846 0.784616 14.7692 1.75385 14.7692H10.2462C11.2154 14.7692 12 13.9846 12 13.0154V1.75385ZM11.0769 13.0154C11.0769 13.4769 10.7077 13.8462 10.2462 13.8462H1.75385C1.29231 13.8462 0.923077 13.4769 0.923077 13.0154V1.75385C0.923077 1.29231 1.29231 0.923077 1.75385 0.923077H10.2462C10.7077 0.923077 11.0769 1.29231 11.0769 1.75385V13.0154Z" fill="white"/>
<path d="M3.18465 8.30775H8.63081C8.76927 8.30775 8.90773 8.2616 9.00004 8.12314C9.09235 8.03083 9.1385 7.89237 9.09235 7.7539C8.90773 6.64621 8.21542 5.76929 7.29234 5.3539C7.56927 5.03083 7.75388 4.61544 7.75388 4.10775C7.75388 3.09237 6.92311 2.2616 5.90773 2.2616C4.89234 2.2616 4.06158 3.09237 4.06158 4.10775C4.06158 4.56929 4.24619 4.98467 4.52311 5.3539C3.60004 5.81544 2.86158 6.69237 2.72311 7.7539C2.72311 7.89237 2.72311 8.03083 2.81542 8.12314C2.90773 8.2616 3.04619 8.30775 3.18465 8.30775ZM4.98465 4.1539C4.98465 3.64621 5.40004 3.23083 5.90773 3.23083C6.41542 3.23083 6.83081 3.64621 6.83081 4.1539C6.83081 4.6616 6.41542 5.07698 5.90773 5.07698C5.40004 5.07698 4.98465 4.6616 4.98465 4.1539ZM5.90773 6.00006C6.83081 6.00006 7.66158 6.5539 8.03081 7.38467H3.78465C4.15388 6.5539 4.98465 6.00006 5.90773 6.00006ZM9.69235 9.69237H2.30773C2.03081 9.69237 1.84619 9.87698 1.84619 10.1539C1.84619 10.4308 2.03081 10.6154 2.30773 10.6154H9.69235C9.96927 10.6154 10.1539 10.4308 10.1539 10.1539C10.1539 9.87698 9.96927 9.69237 9.69235 9.69237ZM9.69235 11.5385H2.30773C2.03081 11.5385 1.84619 11.7231 1.84619 12.0001C1.84619 12.277 2.03081 12.4616 2.30773 12.4616H9.69235C9.96927 12.4616 10.1539 12.277 10.1539 12.0001C10.1539 11.7231 9.96927 11.5385 9.69235 11.5385Z" fill="white"/>
</svg>
