<svg width="15" height="19" viewBox="0 0 15 19" fill="none" xmlns="http://www.w3.org/2000/svg">
<mask id="mask0_57_48" style="mask-type:luminance" maskUnits="userSpaceOnUse" x="0" y="0" width="15" height="19">
<path d="M12.7757 4.24669C12.7625 4.1686 12.7284 4.09567 12.6771 4.03586C12.6257 3.97606 12.559 3.9317 12.4844 3.90762C12.4098 3.88354 12.33 3.88068 12.2539 3.89935C12.1778 3.91802 12.1082 3.9575 12.0527 4.01348L9.83591 6.26142L8.09107 2.90247C8.05484 2.83282 8.00047 2.77452 7.93385 2.73384C7.86723 2.69316 7.79088 2.67167 7.71306 2.67167C7.63523 2.67167 7.55889 2.69316 7.49226 2.73384C7.42564 2.77452 7.37128 2.83282 7.33504 2.90247L6.38147 4.73796L3.98951 0.228046C3.94721 0.148152 3.88113 0.0837365 3.80061 0.0439197C3.7201 0.00410298 3.62924 -0.00909721 3.5409 0.00618822C3.45256 0.0214736 3.37121 0.0644701 3.30837 0.12909C3.24553 0.19371 3.20439 0.276678 3.19077 0.366248L0.878906 15.3309L7.06168 18.8356C7.25262 18.9434 7.46767 19 7.68636 19C7.90505 19 8.1201 18.9434 8.31105 18.8356L14.5472 15.3309L12.7757 4.24669Z" fill="white"/>
</mask>
<g mask="url(#mask0_57_48)">
<path d="M0.878906 15.331L3.19184 0.365228C3.20563 0.275733 3.24689 0.192886 3.3098 0.128405C3.37271 0.0639237 3.45407 0.021072 3.54239 0.00591085C3.6307 -0.00925033 3.72149 0.0040464 3.80192 0.0439204C3.88236 0.0837943 3.94835 0.148227 3.99058 0.228106L6.38253 4.7391L7.33611 2.9036C7.37235 2.83396 7.42671 2.77566 7.49333 2.73498C7.55995 2.6943 7.6363 2.6728 7.71413 2.6728C7.79195 2.6728 7.8683 2.6943 7.93492 2.73498C8.00154 2.77566 8.0559 2.83396 8.09214 2.9036L14.5472 15.331H0.878906Z" fill="#FFA000"/>
<path opacity="0.12" d="M8.78098 0.107107L-2.53809 -0.864624V19.8656L0.878989 15.3309L8.78098 0.107107Z" fill="url(#paint0_linear_57_48)"/>
<path d="M8.86952 9.50162L6.38147 4.73798L0.878906 15.3309L8.86952 9.50162Z" fill="#F57C00"/>
<path opacity="0.2" d="M-2.53809 -0.864624H17.9644V19.8656H-2.53809V-0.864624Z" fill="url(#paint1_linear_57_48)"/>
<path d="M14.5472 15.3309L12.7757 4.24672C12.7625 4.16863 12.7284 4.09569 12.6771 4.03589C12.6257 3.97608 12.559 3.93172 12.4844 3.90764C12.4098 3.88356 12.33 3.88071 12.2539 3.89938C12.1778 3.91805 12.1082 3.95753 12.0527 4.0135L0.878906 15.3309L7.06168 18.8367C7.25262 18.9445 7.46767 19.0011 7.68636 19.0011C7.90505 19.0011 8.1201 18.9445 8.31105 18.8367L14.5472 15.3309Z" fill="#FFCA28"/>
<path d="M12.7759 4.24675C12.7628 4.16866 12.7287 4.09573 12.6773 4.03593C12.6259 3.97612 12.5593 3.93176 12.4846 3.90768C12.41 3.8836 12.3303 3.88074 12.2541 3.89941C12.178 3.91808 12.1084 3.95757 12.053 4.01354L9.83616 6.26148L8.09131 2.90253C8.05508 2.83289 8.00071 2.77458 7.93409 2.7339C7.86747 2.69323 7.79112 2.67173 7.7133 2.67173C7.63547 2.67173 7.55913 2.69323 7.49251 2.7339C7.42588 2.77458 7.37152 2.83289 7.33529 2.90253L6.38171 4.73802L3.98975 0.228107C3.94745 0.148213 3.88137 0.0837975 3.80086 0.0439808C3.72034 0.00416402 3.62948 -0.00903617 3.54114 0.00624926C3.4528 0.0215347 3.37145 0.0645312 3.30861 0.129151C3.24578 0.193771 3.20463 0.276739 3.19101 0.366309L0.879148 15.331H0.870605L0.87808 15.3396L0.938947 15.3698L9.83082 6.36945L12.0498 4.12367C12.1052 4.06739 12.1748 4.02764 12.2511 4.00879C12.3274 3.98995 12.4074 3.99273 12.4822 4.01683C12.557 4.04093 12.6238 4.08542 12.6753 4.14541C12.7267 4.20541 12.7608 4.27858 12.7738 4.35688L14.5304 15.3418L14.5475 15.331L12.7759 4.24675ZM0.899437 15.3104L3.19208 0.4732C3.2057 0.38363 3.24684 0.300661 3.30968 0.236041C3.37252 0.171422 3.45387 0.128425 3.54221 0.11314C3.63055 0.0978543 3.72141 0.111054 3.80192 0.150871C3.88244 0.190688 3.94852 0.255104 3.99082 0.334998L6.38278 4.84599L7.33635 3.0105C7.37259 2.94086 7.42695 2.88255 7.49357 2.84187C7.56019 2.8012 7.63654 2.7797 7.71437 2.7797C7.79219 2.7797 7.86854 2.8012 7.93516 2.84187C8.00178 2.88255 8.05615 2.94086 8.09238 3.0105L9.80092 6.29603L0.899437 15.3104Z" fill="white" fill-opacity="0.2"/>
<path opacity="0.2" d="M8.31105 18.7309C8.1201 18.8387 7.90505 18.8953 7.68636 18.8953C7.46767 18.8953 7.25262 18.8387 7.06168 18.7309L0.893856 15.2326L0.878906 15.3309L7.06168 18.8356C7.25262 18.9434 7.46767 19 7.68636 19C7.90505 19 8.1201 18.9434 8.31105 18.8356L14.5472 15.3309L14.5312 15.2316L8.31105 18.7309Z" fill="#A52714"/>
<path d="M12.7757 4.24675C12.7625 4.16866 12.7284 4.09573 12.6771 4.03593C12.6257 3.97612 12.559 3.93176 12.4844 3.90768C12.4098 3.8836 12.33 3.88074 12.2539 3.89941C12.1778 3.91808 12.1082 3.95757 12.0527 4.01354L9.83591 6.26148L8.09107 2.90253C8.05484 2.83289 8.00047 2.77458 7.93385 2.7339C7.86723 2.69323 7.79088 2.67173 7.71306 2.67173C7.63523 2.67173 7.55889 2.69323 7.49226 2.7339C7.42564 2.77458 7.37128 2.83289 7.33504 2.90253L6.38147 4.73802L3.98951 0.228107C3.94721 0.148213 3.88113 0.0837975 3.80061 0.0439808C3.7201 0.00416402 3.62924 -0.00903617 3.5409 0.00624926C3.45256 0.0215347 3.37121 0.0645312 3.30837 0.129151C3.24553 0.193771 3.20439 0.276739 3.19077 0.366309L0.878906 15.331L7.06168 18.8357C7.25262 18.9435 7.46767 19.0001 7.68636 19.0001C7.90505 19.0001 8.1201 18.9435 8.31105 18.8357L14.5472 15.331L12.7757 4.24675Z" fill="url(#paint2_linear_57_48)"/>
</g>
<defs>
<linearGradient id="paint0_linear_57_48" x1="3.5379" y1="10.2066" x2="2.67961" y2="9.7631" gradientUnits="userSpaceOnUse">
<stop stop-color="#A52714"/>
<stop offset="0.4" stop-color="#A52714" stop-opacity="0.5"/>
<stop offset="0.8" stop-color="#A52714" stop-opacity="0"/>
</linearGradient>
<linearGradient id="paint1_linear_57_48" x1="7.16748" y1="8.95094" x2="6.78097" y2="8.56867" gradientUnits="userSpaceOnUse">
<stop stop-color="#A52714" stop-opacity="0.8"/>
<stop offset="0.5" stop-color="#A52714" stop-opacity="0.21"/>
<stop offset="1" stop-color="#A52714" stop-opacity="0"/>
</linearGradient>
<linearGradient id="paint2_linear_57_48" x1="0.365053" y1="3.48457" x2="14.7984" y2="17.7593" gradientUnits="userSpaceOnUse">
<stop stop-color="white" stop-opacity="0.1"/>
<stop offset="1" stop-color="white" stop-opacity="0"/>
</linearGradient>
</defs>
</svg>
