<svg width="30" height="30" viewBox="0 0 30 30" fill="none" xmlns="http://www.w3.org/2000/svg">
<path d="M2.72727 26.9531L0 0H30L27.2727 26.9531L14.9667 30" fill="#E34F26"/>
<path d="M15.0332 27.6562L24.9445 25.2539L27.2727 2.16797H15.0332" fill="#EF652A"/>
<path d="M15.0333 12.1875H10.0444L9.71181 8.78906H15.0333V5.50781H5.58765L6.58543 15.5273H15.0333V12.1875ZM14.9668 20.8008L10.7761 19.8047L10.51 17.168H6.78499L7.25062 22.3828L14.9668 24.2578V20.8008Z" fill="#EBEBEB"/>
<path d="M14.9668 12.1875V15.5273H19.6231L19.1575 19.8047L14.9668 20.8008V24.2578L22.683 22.3828L23.7473 12.1875H14.9668ZM14.9668 5.50781V8.78906H24.0799L24.4125 5.50781H14.9668Z" fill="white"/>
</svg>
