<svg width="30" height="26" viewBox="0 0 30 26" fill="none" xmlns="http://www.w3.org/2000/svg">
<path d="M14.5581 15.6512C16.0223 15.6512 17.2093 14.4642 17.2093 13C17.2093 11.5358 16.0223 10.3489 14.5581 10.3489C13.0939 10.3489 11.907 11.5358 11.907 13C11.907 14.4642 13.0939 15.6512 14.5581 15.6512Z" fill="#61DAFB"/>
<path d="M24.6279 8.62791C24.1163 8.44186 23.5814 8.25581 23.0233 8.09302C23.1628 7.53488 23.2791 6.97674 23.3721 6.44186C23.8605 3.37209 23.3256 1.2093 21.8372 0.372093C21.3953 0.116279 20.907 0 20.3488 0C18.7209 0 16.6512 1.2093 14.5581 3.23256C12.4651 1.2093 10.3953 0 8.76744 0C8.2093 0 7.72093 0.116279 7.27907 0.372093C5.7907 1.23256 5.25581 3.39535 5.74419 6.44186C5.83721 6.97674 5.95349 7.53488 6.09302 8.09302C5.53488 8.25581 5 8.4186 4.48837 8.62791C1.5814 9.74419 0 11.2791 0 13C0 14.7209 1.60465 16.2558 4.48837 17.3721C5 17.5581 5.53488 17.7442 6.09302 17.907C5.95349 18.4651 5.83721 19.0233 5.74419 19.5581C5.25581 22.6279 5.7907 24.7907 7.27907 25.6279C7.72093 25.8837 8.2093 26 8.76744 26C10.4186 26 12.4884 24.7907 14.5581 22.7674C16.6512 24.7907 18.7209 26 20.3488 26C20.907 26 21.3953 25.8837 21.8372 25.6279C23.3256 24.7674 23.8605 22.6047 23.3721 19.5581C23.2791 19.0233 23.1628 18.4651 23.0233 17.907C23.5814 17.7442 24.1163 17.5814 24.6279 17.3721C27.5349 16.2558 29.1163 14.7209 29.1163 13C29.1163 11.2791 27.5349 9.74419 24.6279 8.62791ZM21.186 1.53488C22.1395 2.09302 22.4651 3.81395 22.0698 6.25581C22 6.74419 21.8837 7.25581 21.7442 7.7907C20.5349 7.51163 19.2558 7.32558 17.907 7.2093C17.1163 6.09302 16.3023 5.09302 15.4884 4.18605C17.2093 2.48837 18.9535 1.32558 20.3721 1.32558C20.6744 1.32558 20.9535 1.39535 21.186 1.53488ZM18.5814 15.3256C18.1628 16.0698 17.6744 16.814 17.1628 17.5581C16.3023 17.6279 15.4419 17.6512 14.5581 17.6512C13.6512 17.6512 12.7907 17.6279 11.9535 17.5581C11.4419 16.814 10.9767 16.0698 10.5581 15.3256C10.1163 14.5581 9.69767 13.7674 9.32558 13C9.69767 12.2326 10.1163 11.4419 10.5581 10.6744C10.9767 9.93023 11.4651 9.18605 11.9767 8.44186C12.8372 8.37209 13.6977 8.34884 14.5814 8.34884C15.4884 8.34884 16.3488 8.37209 17.186 8.44186C17.6977 9.18605 18.1628 9.93023 18.5814 10.6744C19.0233 11.4419 19.4419 12.2326 19.814 13C19.4186 13.7674 19.0233 14.5349 18.5814 15.3256ZM20.5116 14.5581C20.8605 15.3721 21.1395 16.1628 21.3953 16.9535C20.6047 17.1395 19.7674 17.2791 18.8837 17.3953C19.1628 16.9535 19.4651 16.4884 19.7209 16C20 15.5116 20.2558 15.0233 20.5116 14.5581ZM14.5581 20.8605C14 20.2558 13.4651 19.6047 12.9535 18.9302C13.4884 18.9535 14.0233 18.9767 14.5581 18.9767C15.093 18.9767 15.6279 18.9535 16.1628 18.9302C15.6512 19.6047 15.1163 20.2558 14.5581 20.8605ZM10.2326 17.3721C9.34884 17.2558 8.51163 17.1163 7.72093 16.9302C7.97674 16.1628 8.25581 15.3488 8.60465 14.5349C8.86047 15 9.11628 15.4884 9.39535 15.9535C9.67442 16.4651 9.95349 16.907 10.2326 17.3721ZM8.60465 11.4419C8.25581 10.6279 7.97674 9.83721 7.72093 9.04651C8.51163 8.86047 9.34884 8.72093 10.2326 8.60465C9.95349 9.04651 9.65116 9.51163 9.39535 10C9.11628 10.4884 8.86047 10.9767 8.60465 11.4419ZM14.5581 5.13953C15.1163 5.74419 15.6512 6.39535 16.1628 7.06977C15.6279 7.04651 15.093 7.02326 14.5581 7.02326C14.0233 7.02326 13.4884 7.04651 12.9535 7.06977C13.4651 6.39535 14 5.74419 14.5581 5.13953ZM19.7209 10.0233L18.8837 8.62791C19.7674 8.74419 20.6047 8.88372 21.3953 9.06977C21.1395 9.83721 20.8605 10.6512 20.5116 11.4651C20.2558 10.9767 20 10.4884 19.7209 10.0233ZM7.04651 6.25581C6.65116 3.81395 6.97674 2.09302 7.93023 1.53488C8.16279 1.39535 8.44186 1.32558 8.74419 1.32558C10.1395 1.32558 11.8837 2.46512 13.6279 4.18605C12.814 5.06977 12 6.09302 11.2093 7.2093C9.86046 7.32558 8.5814 7.53488 7.37209 7.7907C7.23256 7.25581 7.13954 6.74419 7.04651 6.25581ZM1.30233 13C1.30233 11.907 2.62791 10.7442 4.95349 9.88372C5.41861 9.69767 5.93023 9.53488 6.44186 9.39535C6.81395 10.5581 7.27907 11.7907 7.83721 13.0233C7.27907 14.2558 6.7907 15.4651 6.44186 16.6279C3.23256 15.6977 1.30233 14.3023 1.30233 13ZM7.93023 24.4651C6.97674 23.907 6.65116 22.186 7.04651 19.7442C7.11628 19.2558 7.23256 18.7442 7.37209 18.2093C8.5814 18.4884 9.86046 18.6744 11.2093 18.7907C12 19.907 12.814 20.907 13.6279 21.814C11.907 23.5116 10.1628 24.6744 8.74419 24.6744C8.44186 24.6744 8.16279 24.6047 7.93023 24.4651ZM22.0698 19.7442C22.4651 22.186 22.1395 23.907 21.186 24.4651C20.9535 24.6047 20.6744 24.6744 20.3721 24.6744C18.9767 24.6744 17.2326 23.5349 15.4884 21.814C16.3023 20.9302 17.1163 19.907 17.907 18.7907C19.2558 18.6744 20.5349 18.4651 21.7442 18.2093C21.8837 18.7442 21.9767 19.2558 22.0698 19.7442ZM24.1628 16.1163C23.6977 16.3023 23.186 16.4651 22.6744 16.6047C22.3023 15.4419 21.8372 14.2093 21.2791 12.9767C21.8372 11.7442 22.3256 10.5349 22.6744 9.37209C25.8837 10.3023 27.814 11.6977 27.814 13C27.814 14.093 26.4651 15.2558 24.1628 16.1163Z" fill="#61DAFB"/>
</svg>
