<svg width="30" height="30" viewBox="0 0 30 30" fill="none" xmlns="http://www.w3.org/2000/svg">
<path fill-rule="evenodd" clip-rule="evenodd" d="M20.7868 20.9517C21.8939 20.8311 22.7337 19.8257 22.6956 18.6192C22.6575 17.4129 21.703 16.4477 20.5577 16.4477H20.4814C19.2978 16.4879 18.3816 17.5335 18.4199 18.7801C18.458 19.3833 18.6871 19.9062 19.0306 20.268C17.7326 22.9625 15.7475 24.9329 12.7698 26.5817C10.7464 27.7078 8.64684 28.1099 6.54715 27.8285C4.82915 27.5871 3.49302 26.7829 2.65297 25.4557C1.4314 23.4852 1.31692 21.3538 2.34769 19.2225C3.07308 17.6943 4.21824 16.5683 4.94363 16.0053C4.79099 15.4824 4.56185 14.5979 4.44737 13.9544C-1.08822 18.177 -0.515466 23.8874 1.16419 26.5817C2.42401 28.5926 4.98179 29.8392 7.80678 29.8392C8.57025 29.8392 9.33372 29.7587 10.0973 29.5577C14.9839 28.5523 18.687 25.496 20.7866 20.9517H20.7868ZM27.5058 15.9652C24.6044 12.386 20.3287 10.4156 15.4421 10.4156H14.8313C14.4877 9.69177 13.7623 9.20904 12.9607 9.20904H12.8843C11.701 9.24923 10.7848 10.2948 10.8228 11.5415C10.861 12.7479 11.8154 13.7131 12.9607 13.7131H13.037C13.8769 13.6728 14.6023 13.1098 14.9077 12.3457H15.5948C18.4962 12.3457 21.2449 13.2304 23.7264 14.9597C25.6351 16.2868 27.0095 18.016 27.773 20.1072C28.422 21.7962 28.3838 23.4449 27.6966 24.8526C26.6277 26.9839 24.8334 28.1501 22.4665 28.1501C20.9395 28.1501 19.4888 27.6675 18.7253 27.3055C18.3054 27.7077 17.5418 28.351 17.0073 28.7534C18.649 29.5576 20.3288 30 21.9321 30C25.5971 30 28.3076 27.8686 29.3383 25.7372C30.4454 23.4047 30.369 19.3833 27.5059 15.9652H27.5058ZM8.11233 21.6353C8.15049 22.8417 9.10494 23.8068 10.2502 23.8068H10.3266C11.5101 23.7667 12.4263 22.721 12.388 21.4744C12.35 20.2679 11.3954 19.3029 10.2502 19.3029H10.1739C10.0975 19.3029 9.98288 19.3029 9.90665 19.343C8.34138 16.6084 7.6924 13.6327 7.92153 10.4155C8.07408 8.00259 8.83773 5.91146 10.1739 4.18218C11.2809 2.69426 13.4188 1.97036 14.8695 1.93026C18.916 1.84977 20.634 7.158 20.7485 9.28952C21.2449 9.41011 22.0847 9.69167 22.6574 9.89275C22.1992 3.37807 18.3816 0 14.7169 0C11.2809 0 8.11233 2.61397 6.85243 6.47458C5.09636 11.622 6.24169 16.5683 8.37954 20.4692C8.18874 20.7507 8.07417 21.193 8.11233 21.6355V21.6354V21.6353Z" fill="#764ABC"/>
</svg>
