<svg width="30" height="23" viewBox="0 0 30 23" fill="none" xmlns="http://www.w3.org/2000/svg">
<path fill-rule="evenodd" clip-rule="evenodd" d="M0 9.17719C0 9.34195 0.0485156 9.4507 0.0757031 9.55641C0.252891 10.2438 0.63375 10.8337 1.08562 11.3719C1.72922 12.1387 2.51742 12.7561 3.32484 13.3366C4.02516 13.8401 4.73977 14.3323 5.44289 14.832C5.56359 14.9177 5.67773 15.0164 5.80875 15.1216C5.69602 15.1826 5.60227 15.2363 5.50477 15.2857C4.57687 15.7563 3.68414 16.2839 2.86125 16.923C2.36531 17.3084 1.88578 17.7178 1.54711 18.2529C1.00219 19.1135 0.809297 20.0304 1.21547 21.0094C1.33406 21.2953 1.515 21.5423 1.77023 21.7249C1.85297 21.784 1.94578 21.8426 2.04258 21.8655C2.29055 21.9239 2.5432 21.9621 2.79422 22.0083L3.50508 22.0078C4.29117 21.9377 5.00672 21.6684 5.65336 21.2222C6.66398 20.5247 7.34484 19.5895 7.63758 18.3893C7.85039 17.517 7.85906 16.6437 7.60828 15.7753C7.58508 15.6947 7.55578 15.6157 7.52531 15.5377C7.49484 15.4596 7.45898 15.3837 7.4168 15.2864L9.02836 14.3597L9.0525 14.3803C9.0232 14.4762 8.99203 14.5718 8.96555 14.6686C8.77406 15.368 8.6468 16.0795 8.6925 16.8054C8.74125 17.5788 8.95711 18.3028 9.40992 18.949C9.77602 19.4716 10.6484 19.4911 11.0374 18.9666C11.1755 18.7802 11.3093 18.5855 11.4098 18.3776C11.6726 17.835 11.9159 17.2828 12.1669 16.7344L12.2107 16.6341C12.1927 16.8938 12.1716 17.1218 12.162 17.3501C12.147 17.7066 12.1678 18.0609 12.2897 18.4001C12.394 18.6902 12.5714 18.907 12.9037 18.9452C13.1311 18.9713 13.3123 18.8672 13.4794 18.7352C13.7405 18.5292 13.9526 18.2747 14.1101 17.9855C14.5556 17.1673 15.0131 16.354 15.417 15.5152C15.8538 14.6079 16.2359 13.6741 16.6416 12.7514L16.7086 12.5878C16.8045 12.9645 16.8712 13.3334 16.9943 13.6826C17.1373 14.0878 17.3142 14.4834 17.5069 14.868C17.598 15.0497 17.5875 15.1676 17.4612 15.3199C16.9324 15.9574 16.4128 16.6027 15.8927 17.2472C15.7777 17.3895 15.663 17.5343 15.5672 17.6897C15.5093 17.7841 15.4709 17.8992 15.4547 18.0094C15.4235 18.2198 15.5536 18.4228 15.7788 18.4713C15.9846 18.5156 16.2037 18.532 16.4135 18.5166C17.1394 18.4631 17.7984 18.2084 18.3811 17.7766C19.136 17.2174 19.3784 16.4543 19.1955 15.5498C19.1461 15.3045 19.0587 15.0659 18.9736 14.8294C18.9354 14.7227 18.9328 14.648 19.0024 14.5486C19.6059 13.6868 20.1216 12.7725 20.6011 11.8371C20.6201 11.8003 20.6395 11.7635 20.6728 11.7241C20.8282 12.5327 21.0621 13.312 21.4812 14.0191C21.2674 14.2252 21.0558 14.412 20.8643 14.6177C20.4427 15.071 20.077 15.5632 19.8862 16.1634C19.8042 16.4222 19.7412 16.6852 19.7777 16.9615C19.8345 17.3906 20.186 17.6695 20.6081 17.5718C21.5114 17.3627 22.2912 16.9371 22.8609 16.1831C23.2444 15.6755 23.2793 15.1092 23.1187 14.516C23.0747 14.3548 23.0224 14.1961 22.9662 14.0112C23.1891 13.942 23.4063 13.8591 23.6311 13.8077C24.798 13.5415 25.9523 13.5879 27.0769 14.0093C27.7334 14.2554 28.2637 14.6672 28.5783 15.315C28.9624 16.107 28.7501 16.8584 28.0036 17.359C27.934 17.4056 27.8543 17.4424 27.7966 17.5008C27.7612 17.5366 27.7399 17.6084 27.7486 17.6578C27.7535 17.6866 27.8297 17.7227 27.8735 17.7223C28.1189 17.7204 28.3179 17.5917 28.5089 17.4595C28.9875 17.1284 29.3367 16.6828 29.412 16.0962L29.4267 16.0521L29.4087 15.6701C29.4014 15.648 29.4141 15.6262 29.4124 15.6096C29.3107 14.7553 28.8544 14.0927 28.1906 13.5734C27.4219 12.9722 26.5141 12.7247 25.5541 12.6855C24.7718 12.6537 24.0028 12.7699 23.2655 13.0378C23.0552 13.114 22.8469 13.2042 22.6355 13.2893C22.6071 13.238 22.5766 13.1888 22.5516 13.1379C22.3345 12.6935 22.0716 12.2688 22.0134 11.7593C21.9722 11.3974 21.9216 11.036 22.0076 10.6781C22.0903 10.3338 22.1981 9.99539 22.2996 9.65578C22.3519 9.48094 22.3151 9.38297 22.1482 9.30422C22.0901 9.2768 22.0268 9.25289 21.964 9.24375C21.5538 9.18422 21.1493 9.2182 20.752 9.33375C20.6114 9.37477 20.5092 9.45352 20.478 9.60914C20.4602 9.69844 20.4239 9.78398 20.3986 9.87211C20.2948 10.2384 20.2212 10.6118 20.0534 10.9608C19.6329 11.8362 19.1529 12.6785 18.6616 13.5148C18.6084 13.605 18.5524 13.6936 18.4854 13.803C18.3129 13.4421 18.1289 13.1182 18.0731 12.7385C18.0101 12.3091 17.9604 11.8805 18.0673 11.4544C18.1467 11.1366 18.2505 10.8246 18.3462 10.511C18.3914 10.362 18.3705 10.2837 18.2355 10.2052C18.1673 10.1655 18.0902 10.1304 18.0134 10.1189C17.588 10.0559 17.1689 10.0889 16.7585 10.2216C16.6312 10.2628 16.5645 10.3451 16.5255 10.4763C16.4112 10.8635 16.3137 11.2601 16.1531 11.6283C15.503 13.1189 14.8341 14.6018 14.1659 16.0845C14.0264 16.3941 13.863 16.6929 13.7058 16.9943C13.6659 17.0707 13.6078 17.138 13.5581 17.2097C13.5183 17.1626 13.5028 17.1302 13.503 17.0979C13.5042 16.9073 13.4815 16.7112 13.5178 16.527C13.6277 15.9696 13.7543 15.4153 13.8877 14.8631C13.9978 14.407 14.126 13.9552 14.2481 13.5021C14.2891 13.3505 14.2898 13.2087 14.1809 13.0812C13.9978 12.8677 13.6153 12.8208 13.3884 12.9853L13.2881 13.042L13.3076 12.8803C13.3554 12.5337 13.365 12.1882 13.2698 11.8467C13.1513 11.4211 12.8475 11.1762 12.4059 11.1898C12.2002 11.1961 11.9841 11.2312 11.7935 11.3062C10.9922 11.6203 10.376 12.1765 9.85148 12.8456C9.80391 12.9063 9.74109 12.9616 9.67406 12.9989C8.99601 13.3748 8.31586 13.7461 7.63594 14.1187L6.87914 14.5334C6.67617 14.3398 6.49172 14.1389 6.28242 13.9685C5.64328 13.4473 4.99383 12.9389 4.35023 12.4235C3.77977 11.9667 3.22711 11.4909 2.8043 10.886C2.48977 10.436 2.28703 9.94359 2.26758 9.38719C2.24297 8.6782 2.44406 8.03039 2.805 7.42734C3.26672 6.65578 3.89648 6.03656 4.58883 5.4757C5.32125 4.88273 6.11344 4.3793 6.93445 3.91969C8.08312 3.2768 9.26461 2.70773 10.5314 2.33203C11.8303 1.94672 13.1482 1.72617 14.5076 1.87992C15.042 1.94039 15.5609 2.06273 16.0373 2.32406C16.4023 2.52398 16.7016 2.78578 16.8408 3.195C16.9781 3.59766 16.9739 4.0057 16.8787 4.41469C16.6854 5.24297 16.2319 5.9257 15.6612 6.53578C14.7251 7.53586 13.5832 8.21672 12.2977 8.66648C11.5559 8.92594 10.7927 9.08883 10.009 9.15469C9.36937 9.20836 8.74312 9.15164 8.1375 8.92922C7.73648 8.7818 7.38727 8.55633 7.10648 8.22914C7.05633 8.17055 6.99211 8.10703 6.89859 8.16188C6.80695 8.21578 6.79078 8.30297 6.82148 8.39133C6.87281 8.53805 6.92016 8.69086 7.00008 8.82211C7.20094 9.15141 7.49391 9.39023 7.81641 9.59508C8.43586 9.98906 9.1282 10.1215 9.84609 10.1522C10.9355 10.1993 11.9984 10.0366 13.0462 9.74438C14.5423 9.32719 15.843 8.59031 16.8862 7.42781C17.7548 6.45984 18.3752 5.36742 18.5081 4.04836C18.573 3.40453 18.5039 2.77383 18.2025 2.18648C17.8755 1.55016 17.3557 1.07695 16.7341 0.750938C15.829 0.276328 14.8521 0 13.8438 0H12.8337C11.6126 0 10.432 0.349922 9.28453 0.767344C8.41594 1.08352 7.56422 1.45664 6.73734 1.86961C4.93664 2.76937 3.25969 3.8543 1.88227 5.34609C1.19602 6.0893 0.615 6.90937 0.280781 7.875C0.183047 8.15766 0.0902344 8.4607 0.0203906 8.75297M6.54516 17.1935C6.46711 18.2386 5.99344 19.0859 5.2193 19.7721C4.78383 20.1579 4.28438 20.4326 3.70266 20.5291C3.49172 20.5641 3.27586 20.5725 3.07125 20.4851C2.77945 20.3604 2.71406 20.1014 2.70844 19.8255C2.69977 19.3859 2.85375 18.9884 3.06492 18.6101C3.34055 18.117 3.74461 17.741 4.17609 17.3899C4.85578 16.8366 5.59313 16.3683 6.34828 15.9263L6.40523 15.9028C6.52195 16.3341 6.5775 16.7599 6.54516 17.1935ZM12.4416 12.6516C12.3865 12.9853 12.3176 13.3193 12.2201 13.6427C11.883 14.7623 11.4502 15.8473 10.9821 16.9177C10.8956 17.1157 10.7698 17.2964 10.6603 17.4841C10.6434 17.5132 10.6184 17.5383 10.594 17.5624C10.4585 17.6962 10.3301 17.6892 10.2616 17.5141C10.182 17.3107 10.133 17.093 10.0908 16.8776C10.0624 16.733 10.0692 16.5811 10.0603 16.433C10.0695 15.3797 10.3908 14.4225 10.9359 13.5314C11.1607 13.1639 11.4054 12.8138 11.7792 12.5813C11.8941 12.5098 12.023 12.4523 12.153 12.4158C12.3523 12.3598 12.4746 12.4519 12.4416 12.6516ZM16.4644 17.7769L17.9102 16.0887C17.9705 16.7156 16.9048 17.9672 16.4644 17.7769ZM21.0823 16.6409C20.9801 16.6995 20.8687 16.7416 20.764 16.7958C20.6681 16.8455 20.6365 16.7953 20.6337 16.7128C20.6318 16.6568 20.64 16.5982 20.6555 16.5438C20.8507 15.8552 21.21 15.2674 21.7446 14.7893L21.7821 14.7701C22.0364 15.4814 21.7425 16.2626 21.0823 16.6409Z" fill="#CB6699"/>
</svg>
